<svg width="14" height="8" viewBox="0 0 14 8" fill="none" xmlns="http://www.w3.org/2000/svg">
<path d="M13.8135 1.26853L7.4502 7.63184C7.39111 7.69101 7.32093 7.73794 7.24368 7.76997C7.16643 7.80199 7.08362 7.81847 7 7.81847C6.91638 7.81847 6.83357 7.80199 6.75632 7.76997C6.67907 7.73794 6.60889 7.69101 6.54979 7.63184L0.186481 1.26853C0.0670791 1.14913 0 0.987185 0 0.818326C0 0.649466 0.0670791 0.487523 0.186481 0.368121C0.305882 0.248719 0.467826 0.181641 0.636685 0.181641C0.805545 0.181641 0.967488 0.248719 1.08689 0.368121L7 6.28203L12.9131 0.368121C12.9722 0.308999 13.0424 0.262102 13.1197 0.230105C13.1969 0.198109 13.2797 0.181641 13.3633 0.181641C13.4469 0.181641 13.5297 0.198109 13.607 0.230105C13.6842 0.262102 13.7544 0.308999 13.8135 0.368121C13.8726 0.427243 13.9195 0.497431 13.9515 0.574677C13.9835 0.651923 14 0.734715 14 0.818326C14 0.901937 13.9835 0.984729 13.9515 1.06197C13.9195 1.13922 13.8726 1.20941 13.8135 1.26853Z" fill="#E01E26"/>
</svg>
