<svg width="20" height="11" viewBox="0 0 20 11" fill="none" xmlns="http://www.w3.org/2000/svg">
<path d="M19.583 7.61491C19.4954 7.66486 19.3988 7.69704 19.2988 7.70962C19.1987 7.7222 19.0972 7.71492 19 7.68821C18.9027 7.6615 18.8117 7.61587 18.7321 7.55395C18.6526 7.49202 18.586 7.41501 18.5362 7.32732L16.7148 4.14466C15.6559 4.86064 14.4878 5.40001 13.256 5.74174L13.8188 9.11804C13.8354 9.21744 13.8322 9.31913 13.8095 9.41731C13.7868 9.51548 13.7449 9.60822 13.6863 9.69022C13.6278 9.77221 13.5536 9.84186 13.4681 9.89518C13.3826 9.94849 13.2874 9.98443 13.188 10.0009C13.1471 10.0076 13.1057 10.0112 13.0643 10.0115C12.8829 10.0112 12.7074 9.94663 12.5691 9.82921C12.4308 9.71179 12.3386 9.54914 12.3089 9.37016L11.7558 6.05521C10.5893 6.21754 9.40599 6.21754 8.23952 6.05521L7.68639 9.37016C7.65663 9.54947 7.56415 9.71237 7.42544 9.82983C7.28674 9.94729 7.11082 10.0117 6.92907 10.0115C6.88668 10.0113 6.84436 10.0078 6.80253 10.0009C6.70312 9.98443 6.60794 9.94849 6.52242 9.89518C6.43691 9.84186 6.36274 9.77221 6.30416 9.69022C6.24558 9.60822 6.20373 9.51548 6.18101 9.41731C6.15829 9.31913 6.15514 9.21744 6.17175 9.11804L6.73734 5.74174C5.5061 5.39893 4.33865 4.85858 3.28051 4.14178L1.46486 7.32732C1.36316 7.50453 1.19524 7.63408 0.998018 7.68747C0.800801 7.74087 0.590451 7.71373 0.413242 7.61203C0.236033 7.51033 0.106481 7.3424 0.0530872 7.14519C-0.000307042 6.94797 0.0268297 6.73762 0.128528 6.56041L2.04579 3.2052C1.37235 2.62338 0.753094 1.98166 0.195632 1.28793C0.126111 1.21031 0.0731378 1.11933 0.0399459 1.02056C0.00675413 0.921781 -0.00596004 0.817277 0.00257981 0.713424C0.0111196 0.609571 0.0407343 0.508548 0.0896159 0.416521C0.138497 0.324495 0.20562 0.243394 0.286888 0.178172C0.368155 0.112949 0.461862 0.0649725 0.562288 0.0371699C0.662714 0.00936732 0.767752 0.002322 0.870991 0.0164646C0.97423 0.0306071 1.0735 0.0656408 1.16275 0.119427C1.252 0.173212 1.32936 0.244622 1.39009 0.329297C2.98142 2.29833 5.76529 4.64314 9.99669 4.64314C14.2281 4.64314 17.012 2.29545 18.6033 0.329297C18.6633 0.242889 18.7405 0.16976 18.83 0.11446C18.9195 0.0591596 19.0195 0.0228713 19.1236 0.00785257C19.2278 -0.00716611 19.3339 -0.00059392 19.4354 0.0271602C19.5369 0.0549144 19.6316 0.103257 19.7136 0.16918C19.7956 0.235103 19.8632 0.317197 19.9121 0.410353C19.961 0.503509 19.9902 0.605735 19.9979 0.710672C20.0057 0.815608 19.9917 0.92101 19.9569 1.02032C19.9222 1.11963 19.8673 1.21072 19.7958 1.28793C19.2384 1.98166 18.6191 2.62338 17.9457 3.2052L19.8629 6.56041C19.9144 6.64787 19.948 6.74468 19.9618 6.84522C19.9756 6.94576 19.9693 7.04804 19.9432 7.14612C19.9172 7.24421 19.8719 7.33615 19.8101 7.41662C19.7483 7.49709 19.6711 7.56449 19.583 7.61491Z" fill="#999999"/>
</svg>
