<svg width="25" height="26" viewBox="0 0 25 26" fill="none" xmlns="http://www.w3.org/2000/svg">
<path d="M23.7963 17.3072L17.9075 14.6685L17.8913 14.661C17.5856 14.5302 17.2521 14.4778 16.921 14.5083C16.5899 14.5389 16.2716 14.6515 15.995 14.836C15.9624 14.8575 15.9311 14.8809 15.9013 14.906L12.8588 17.4997C10.9313 16.5635 8.94126 14.5885 8.00501 12.686L10.6025 9.59725C10.6275 9.566 10.6513 9.53475 10.6738 9.501C10.8543 9.22512 10.9638 8.9089 10.9926 8.58046C11.0214 8.25203 10.9686 7.92157 10.8388 7.6185V7.6035L8.19251 1.70475C8.02094 1.30883 7.72592 0.979016 7.35149 0.764545C6.97707 0.550074 6.54333 0.462448 6.11501 0.514747C4.42122 0.73763 2.86649 1.56946 1.74118 2.85487C0.61587 4.14028 -0.00305116 5.79136 1.13108e-05 7.49975C1.13108e-05 17.4247 8.07501 25.4997 18 25.4997C19.7084 25.5028 21.3595 24.8839 22.6449 23.7586C23.9303 22.6333 24.7621 21.0785 24.985 19.3847C25.0374 18.9566 24.95 18.5229 24.7357 18.1485C24.5215 17.7741 24.1919 17.479 23.7963 17.3072ZM18 23.4997C13.758 23.4951 9.691 21.8079 6.69142 18.8083C3.69184 15.8088 2.00464 11.7418 2.00001 7.49975C1.99531 6.27911 2.43507 5.09849 3.23718 4.17838C4.03929 3.25827 5.14889 2.66158 6.35876 2.49975C6.35827 2.50473 6.35827 2.50976 6.35876 2.51475L8.98376 8.38975L6.40001 11.4822C6.37379 11.5124 6.34996 11.5446 6.32876 11.5785C6.14066 11.8671 6.0303 12.1995 6.0084 12.5433C5.9865 12.8872 6.0538 13.2308 6.20376 13.541C7.33626 15.8572 9.67001 18.1735 12.0113 19.3047C12.3237 19.4533 12.6694 19.5183 13.0144 19.4933C13.3595 19.4683 13.6922 19.3543 13.98 19.1622C14.0121 19.1406 14.043 19.1173 14.0725 19.0922L17.1113 16.4997L22.9863 19.131C22.9863 19.131 22.9963 19.131 23 19.131C22.8402 20.3426 22.2444 21.4544 21.3241 22.2585C20.4038 23.0626 19.2221 23.5039 18 23.4997Z" fill="#3375EC"/>
</svg>
