<svg width="34" height="33" viewBox="0 0 34 33" fill="none" xmlns="http://www.w3.org/2000/svg">
<path d="M28.362 0H5.41682C2.70133 0 0.5 2.20133 0.5 4.91682V27.862C0.5 30.5775 2.70133 32.7788 5.41682 32.7788H28.362C31.0774 32.7788 33.2788 30.5775 33.2788 27.862V4.91682C33.2788 2.20133 31.0774 0 28.362 0Z" fill="#1877F2"/>
<path d="M23.2659 21.1269L23.9957 16.3894H19.4502V13.3164C19.4502 12.0231 20.084 10.7555 22.1199 10.7555H24.1878V6.7222C24.1878 6.7222 22.312 6.4021 20.5194 6.4021C16.7741 6.4021 14.3285 8.66845 14.3285 12.7786V16.3894H10.1672V21.1269H14.3285V32.7788H19.4502V21.1269H23.2659Z" fill="white"/>
</svg>
