<svg width="35" height="34" viewBox="0 0 35 34" fill="none" xmlns="http://www.w3.org/2000/svg">
<path d="M34.1693 13.6706H32.8V13.6H17.5V20.4H27.1076C25.7059 24.3584 21.9396 27.2 17.5 27.2C11.8671 27.2 7.3 22.6329 7.3 17C7.3 11.3671 11.8671 6.8 17.5 6.8C20.1002 6.8 22.4657 7.7809 24.2669 9.38315L29.0753 4.5747C26.0391 1.74505 21.9778 0 17.5 0C8.11175 0 0.5 7.61175 0.5 17C0.5 26.3883 8.11175 34 17.5 34C26.8883 34 34.5 26.3883 34.5 17C34.5 15.8602 34.3827 14.7475 34.1693 13.6706Z" fill="#FFC107"/>
<path d="M2.46014 9.08735L8.04549 13.1835C9.55679 9.4418 13.2169 6.8 17.5 6.8C20.1002 6.8 22.4657 7.7809 24.2669 9.38315L29.0753 4.5747C26.0391 1.74505 21.9778 0 17.5 0C10.9703 0 5.30764 3.68645 2.46014 9.08735Z" fill="#FF3D00"/>
<path d="M17.5 33.9999C21.8911 33.9999 25.881 32.3194 28.8976 29.5867L23.6361 25.1344C21.9293 26.4272 19.8077 27.1999 17.5 27.1999C13.0783 27.1999 9.32382 24.3805 7.90942 20.4458L2.36572 24.717C5.17922 30.2225 10.8929 33.9999 17.5 33.9999Z" fill="#4CAF50"/>
<path d="M34.1693 13.6706H32.8V13.6001H17.5V20.4001H27.1076C26.4344 22.3015 25.2112 23.9412 23.6336 25.1354C23.6344 25.1346 23.6353 25.1346 23.6361 25.1337L28.8977 29.586C28.5254 29.9243 34.5 25.5001 34.5 17.0001C34.5 15.8602 34.3827 14.7476 34.1693 13.6706Z" fill="#1976D2"/>
</svg>
