<svg width="449" height="196" viewBox="0 0 449 196" fill="none" xmlns="http://www.w3.org/2000/svg">
<g opacity="0.9">
<path d="M28.0852 50.6128C30.9566 52.6049 32.7853 55.5463 33.5556 58.4644C34.3649 61.437 34.4272 64.5729 32.9331 67.1797C31.7503 69.9422 29.3692 71.872 26.4433 73.0392C23.6809 74.2376 20.2414 74.6189 16.9032 73.5839C13.5649 72.549 10.9814 70.1912 9.5963 66.9541C8.36682 63.8025 8.50689 59.8262 10.1566 56.0988C12.1175 52.5271 15.0512 49.8969 18.3739 48.9709C21.7666 48.0527 25.2138 48.6286 28.0852 50.6206V50.6128Z" fill="white"/>
<path d="M13.915 86.05C17.37 86.5947 20.3504 88.4623 22.4047 90.7656C23.4319 91.9251 24.2178 93.209 24.708 94.5708C25.3228 95.9403 25.6729 97.3877 25.6496 98.8973C25.4628 101.917 24.4746 104.679 22.3191 106.998C20.1481 109.301 17.2767 111.114 13.8294 111.628C10.3511 112.141 6.93501 111.138 4.49161 108.795C2.04043 106.476 0.126173 102.866 0.31293 98.7884C0.344056 96.7574 0.71757 94.8276 1.41013 93.1234C2.22719 91.427 3.32438 89.9641 4.60055 88.8202C7.16068 86.5091 10.46 85.5208 13.915 86.0656V86.05Z" fill="white"/>
<path d="M16.6386 124.125C20.0391 123.106 23.284 123.588 26.2254 124.748C29.2369 125.899 31.2756 128 32.6841 130.662C34.0692 133.331 33.9213 136.49 33.2054 139.377C32.365 142.311 30.4819 145.252 27.5872 147.221C24.6925 149.182 21.2608 149.703 17.9225 148.723C14.4831 147.828 11.635 145.143 9.79083 141.509C7.92326 137.875 8.14892 133.766 9.32393 130.662C10.5456 127.502 13.347 125.106 16.6464 124.125H16.6386Z" fill="white"/>
<path d="M35.5088 157.282C38.0923 154.924 41.3994 153.78 44.4576 153.648C47.4457 153.625 50.5272 154.263 52.8305 156.208C55.0327 158.294 56.6434 160.683 57.0559 163.873C57.4761 167.025 57.1259 170.347 55.3595 173.382C53.6009 176.394 50.6439 178.487 47.2978 178.899C44.0062 179.304 39.8898 178.635 36.8706 175.888C33.7424 173.281 31.8515 169.849 31.7814 166.309C31.6103 162.838 32.9175 159.632 35.501 157.274L35.5088 157.282Z" fill="white"/>
<path d="M66.8762 179.008C68.2068 175.717 70.6035 173.476 73.3426 171.911C76.1206 170.285 79.0309 169.989 81.9957 170.557C84.9449 171.149 87.326 173.219 89.1391 175.6C90.9055 178.098 92.0261 181.413 91.7459 184.899C91.4658 188.385 89.7305 191.381 86.8825 193.373C84.0422 195.489 80.167 196.058 76.1751 195.217C72.1832 194.4 69.1017 191.669 67.4053 188.813C65.7089 185.879 65.5766 182.199 66.8684 179.008H66.8762Z" fill="white"/>
<path d="M141.275 176.728C138.139 173.787 138.007 168.83 140.987 165.647C143.968 162.472 148.925 162.278 152.061 165.219C155.197 168.161 155.329 173.118 152.348 176.3C149.368 179.475 144.411 179.67 141.275 176.728Z" fill="white"/>
<path d="M164.807 159.5C161.671 156.559 161.538 151.602 164.519 148.419C167.499 145.244 172.456 145.05 175.592 147.991C178.728 150.932 178.86 155.889 175.88 159.072C172.899 162.247 167.943 162.441 164.807 159.5Z" fill="white"/>
<path d="M183.661 140.264C180.525 137.322 180.393 132.366 183.373 129.183C186.354 126.008 191.311 125.814 194.447 128.755C197.582 131.696 197.715 136.653 194.734 139.836C191.754 143.011 186.797 143.205 183.661 140.264Z" fill="white"/>
<path d="M111.246 189.754C107.667 186.401 107.519 180.743 110.92 177.117C114.32 173.491 119.977 173.273 123.557 176.627C127.136 179.981 127.284 185.638 123.884 189.264C120.483 192.89 114.826 193.108 111.246 189.754Z" fill="white"/>
<path d="M197.754 73.3039C190.245 81.3734 177.53 81.7469 169.351 74.1443C161.173 66.534 160.636 53.8268 168.145 45.7573C175.654 37.6879 188.369 37.3144 196.548 44.9247C204.726 52.535 205.263 65.2423 197.754 73.3117V73.3039Z" fill="white"/>
<path d="M164.122 42.5046C158.41 48.901 148.115 48.5275 142.731 44.2166C137.12 39.7811 135.439 30.7156 139.47 23.2998C141.563 19.6503 145.213 16.9812 149.275 16.4598C153.29 15.9463 158.286 16.7711 162.029 20.0471C170.098 26.6381 169.764 36.1782 164.114 42.5046H164.122Z" fill="white"/>
<path d="M132.552 19.9848C129.354 27.5406 121.456 31.7038 114.701 30.1475C111.215 29.4005 108.359 27.0582 106.196 24.2335C104.08 21.2765 102.726 17.3469 103.029 13.2149C103.325 9.08287 105.364 5.52672 108.717 3.15335C112.063 0.647699 116.662 -0.146028 121.386 0.881134C126.148 1.72932 129.79 5.03647 131.829 8.39809C133.891 11.7986 134.062 16.203 132.56 19.9848H132.552Z" fill="white"/>
<path d="M92.6019 13.5885C92.8431 17.0746 91.6914 20.3506 89.8939 22.794C88.073 25.2297 85.6685 27.2918 82.6882 27.7509C79.7857 28.5368 76.782 27.8909 74.0507 26.3346C71.3894 24.9262 68.946 22.4672 67.6699 19.2145C66.3937 15.9618 66.6271 12.4679 68.2924 9.3709C69.9888 6.43726 73.1792 4.0561 77.1166 3.03672C81.1319 2.34416 84.9993 2.93556 87.8085 5.00545C90.6409 7.05977 92.3529 10.1023 92.5941 13.5885H92.6019Z" fill="white"/>
<path d="M56.0754 24.6614C57.8107 27.6962 58.2153 31.1979 57.7095 34.2483C57.4449 35.7734 56.9391 37.1975 56.1921 38.4269C55.4762 39.7187 54.6047 40.9404 53.4141 41.8586C50.9629 43.625 48.1227 44.5043 45.0256 44.3331C41.9286 44.1386 38.6136 42.9324 36.0457 40.5591C33.4856 38.1779 32.2328 34.9797 32.474 31.5559C32.6919 28.132 34.3727 24.4513 37.6565 22.0235C39.2673 20.7784 40.9714 19.8135 42.7612 19.3311C44.5976 18.9109 46.4185 18.8408 48.1149 19.121C51.5154 19.6735 54.3479 21.6266 56.0832 24.6614H56.0754Z" fill="white"/>
<path d="M191.567 98.835C191.054 83.7388 202.874 71.0783 217.97 70.5647C233.066 70.0511 245.727 81.8713 246.24 96.9675C246.754 112.064 234.934 124.724 219.838 125.238C204.742 125.751 192.081 113.931 191.567 98.835Z" fill="white"/>
<path d="M421.223 145.065C418.352 143.073 416.523 140.131 415.752 137.213C414.943 134.241 414.881 131.105 416.375 128.498C417.558 125.736 419.939 123.806 422.865 122.639C425.627 121.44 429.067 121.059 432.405 122.094C435.743 123.129 438.327 125.487 439.712 128.724C440.941 131.875 440.801 135.852 439.152 139.579C437.191 143.151 434.257 145.781 430.934 146.707C427.542 147.625 424.094 147.049 421.223 145.057V145.065Z" fill="white"/>
<path d="M435.393 109.636C431.938 109.091 428.958 107.223 426.896 104.92C425.868 103.761 425.083 102.477 424.592 101.115C423.978 99.7453 423.627 98.298 423.651 96.7883C423.837 93.7691 424.826 91.0067 426.981 88.6878C429.152 86.3844 432.024 84.5713 435.471 84.0578C438.949 83.5442 442.365 84.548 444.809 86.8902C447.26 89.2013 449.174 92.8198 448.987 96.8973C448.956 98.9283 448.583 100.858 447.89 102.562C447.073 104.259 445.976 105.722 444.7 106.865C442.14 109.177 438.84 110.165 435.385 109.62L435.393 109.636Z" fill="white"/>
<path d="M432.677 71.5606C429.277 72.58 426.032 72.0976 423.091 70.9381C420.079 69.7864 418.04 67.6854 416.632 65.0241C415.247 62.3551 415.395 59.1958 416.11 56.3088C416.951 53.3752 418.834 50.4338 421.729 48.4651C424.623 46.5041 428.055 45.9827 431.393 46.9632C434.833 47.8581 437.681 50.5427 439.525 54.1767C441.393 57.8029 441.167 61.9193 439.992 65.0241C438.77 68.1834 435.969 70.5802 432.67 71.5606H432.677Z" fill="white"/>
<path d="M413.799 38.4035C411.216 40.7613 407.909 41.9052 404.851 42.0374C401.862 42.0608 398.781 41.4227 396.478 39.4773C394.275 37.3919 392.665 35.0029 392.252 31.8125C391.832 28.661 392.182 25.3383 393.949 22.3035C395.707 19.292 398.664 17.1988 402.01 16.7864C405.302 16.3817 409.418 17.0509 412.438 19.7978C415.566 22.4046 417.457 25.8363 417.527 29.3769C417.698 32.8474 416.391 36.0534 413.807 38.4113L413.799 38.4035Z" fill="white"/>
<path d="M382.432 16.6698C381.101 19.9614 378.705 22.2024 375.966 23.7665C373.188 25.3929 370.277 25.6886 367.312 25.1205C364.363 24.5291 361.982 22.4592 360.169 20.0781C358.403 17.5802 357.282 14.2653 357.562 10.7791C357.842 7.29302 359.578 4.29712 362.426 2.30505C365.266 0.188476 369.141 -0.379572 373.133 0.460834C377.125 1.27789 380.206 4.00922 381.903 6.86504C383.599 9.79868 383.731 13.4793 382.44 16.6698H382.432Z" fill="white"/>
<path d="M308.033 18.9576C311.169 21.899 311.301 26.8559 308.321 30.0385C305.34 33.2134 300.384 33.4079 297.248 30.4665C294.112 27.5251 293.979 22.5682 296.96 19.3856C299.94 16.2107 304.897 16.0162 308.033 18.9576Z" fill="white"/>
<path d="M284.501 36.1781C287.637 39.1195 287.77 44.0763 284.789 47.259C281.809 50.4338 276.852 50.6284 273.716 47.6869C270.58 44.7455 270.448 39.7887 273.428 36.6061C276.409 33.4312 281.365 33.2367 284.501 36.1781Z" fill="white"/>
<path d="M265.655 55.4217C268.79 58.3631 268.923 63.32 265.942 66.5026C262.962 69.6775 258.005 69.872 254.869 66.9306C251.733 63.9892 251.601 59.0324 254.581 55.8497C257.562 52.6749 262.519 52.4803 265.655 55.4217Z" fill="white"/>
<path d="M338.069 5.93113C341.649 9.28497 341.797 14.9422 338.396 18.5683C334.996 22.1945 329.339 22.4124 325.759 19.0586C322.18 15.7047 322.032 10.0476 325.432 6.42137C328.833 2.79517 334.49 2.57729 338.069 5.93113Z" fill="white"/>
<path d="M251.554 122.382C259.064 114.312 271.779 113.939 279.957 121.549C288.135 129.16 288.672 141.867 281.163 149.936C273.654 158.006 260.939 158.379 252.761 150.769C244.582 143.159 244.045 130.451 251.554 122.382Z" fill="white"/>
<path d="M285.194 153.181C290.906 146.785 301.201 147.158 306.585 151.469C312.196 155.905 313.877 164.97 309.846 172.386C307.753 176.036 304.103 178.705 300.041 179.226C296.026 179.74 291.03 178.915 287.287 175.639C279.218 169.048 279.552 159.508 285.202 153.181H285.194Z" fill="white"/>
<path d="M316.756 175.701C319.954 168.145 327.852 163.982 334.607 165.538C338.093 166.285 340.949 168.627 343.112 171.452C345.228 174.409 346.582 178.339 346.279 182.471C345.983 186.603 343.945 190.159 340.591 192.532C337.245 195.038 332.646 195.832 327.922 194.804C323.16 193.956 319.518 190.649 317.48 187.287C315.417 183.887 315.246 179.483 316.748 175.701H316.756Z" fill="white"/>
<path d="M356.706 182.097C356.465 178.611 357.617 175.335 359.414 172.892C361.235 170.456 363.64 168.394 366.612 167.935C369.515 167.149 372.518 167.795 375.25 169.351C377.911 170.76 380.354 173.218 381.63 176.471C382.907 179.724 382.673 183.218 381.008 186.315C379.312 189.248 376.121 191.63 372.184 192.649C368.168 193.342 364.301 192.75 361.492 190.68C358.659 188.626 356.947 185.583 356.706 182.097Z" fill="white"/>
<path d="M393.233 171.024C391.497 167.989 391.093 164.488 391.599 161.437C391.863 159.912 392.369 158.488 393.116 157.259C393.832 155.967 394.703 154.745 395.894 153.827C398.337 152.061 401.185 151.181 404.283 151.353C407.38 151.547 410.694 152.753 413.262 155.127C415.823 157.508 417.075 160.706 416.834 164.13C416.616 167.554 414.943 171.234 411.652 173.662C410.049 174.907 408.337 175.872 406.547 176.355C404.71 176.775 402.882 176.845 401.193 176.565C397.793 176.012 394.96 174.059 393.225 171.024H393.233Z" fill="white"/>
</g>
</svg>
