<svg width="26" height="27" viewBox="0 0 26 27" fill="none" xmlns="http://www.w3.org/2000/svg">
<path d="M15.6354 2.31055C15.6707 2.17856 15.7316 2.05482 15.8148 1.9464C15.8979 1.83798 16.0016 1.747 16.1199 1.67867C16.2382 1.61034 16.3689 1.56599 16.5043 1.54815C16.6398 1.53032 16.7774 1.53935 16.9094 1.57473C18.8374 2.07778 20.5965 3.08568 22.0054 4.49463C23.4144 5.90358 24.4223 7.66265 24.9253 9.59067C24.9607 9.72264 24.9698 9.86029 24.9519 9.99575C24.9341 10.1312 24.8897 10.2618 24.8214 10.3801C24.7531 10.4985 24.6621 10.6021 24.5537 10.6853C24.4453 10.7684 24.3215 10.8294 24.1895 10.8647C24.1017 10.8878 24.0112 10.8996 23.9204 10.8998C23.6912 10.8998 23.4685 10.8241 23.2868 10.6844C23.105 10.5448 22.9745 10.349 22.9155 10.1276C22.5052 8.55367 21.6826 7.11765 20.5325 5.96754C19.3824 4.81743 17.9464 3.99484 16.3725 3.58457C16.2404 3.5494 16.1165 3.48854 16.0079 3.40546C15.8994 3.32238 15.8083 3.21871 15.7398 3.10038C15.6713 2.98205 15.6269 2.85138 15.609 2.71586C15.591 2.58033 15.6 2.4426 15.6354 2.31055ZM15.3325 7.74464C17.1252 8.22305 18.277 9.37487 18.7554 11.1676C18.8144 11.3891 18.945 11.5848 19.1267 11.7245C19.3084 11.8641 19.5312 11.9398 19.7604 11.9398C19.8512 11.9396 19.9416 11.9278 20.0295 11.9047C20.1614 11.8694 20.2852 11.8084 20.3936 11.7253C20.502 11.6422 20.593 11.5385 20.6613 11.4202C20.7297 11.3018 20.774 11.1712 20.7918 11.0358C20.8097 10.9003 20.8006 10.7627 20.7653 10.6307C20.0997 8.13985 18.3602 6.40042 15.8694 5.7348C15.7374 5.69955 15.5998 5.69063 15.4644 5.70857C15.329 5.7265 15.1984 5.77093 15.0802 5.83931C14.9619 5.9077 14.8583 5.99871 14.7752 6.10714C14.6922 6.21557 14.6313 6.3393 14.596 6.47127C14.5608 6.60323 14.5518 6.74085 14.5698 6.87627C14.5877 7.01168 14.6321 7.14224 14.7005 7.26048C14.7689 7.37872 14.8599 7.48234 14.9683 7.56541C15.0768 7.64848 15.2005 7.70939 15.3325 7.74464ZM25.9849 20.1404C25.7531 21.9019 24.8879 23.5189 23.5511 24.6892C22.2142 25.8596 20.4971 26.5032 18.7203 26.5001C8.39816 26.5001 1.17634e-05 18.1019 1.17634e-05 7.77974C-0.00317326 6.00299 0.640516 4.28583 1.81086 2.94898C2.9812 1.61213 4.59815 0.747018 6.35972 0.515215C6.80518 0.460823 7.25628 0.551956 7.64569 0.77501C8.03509 0.998063 8.34192 1.34107 8.52036 1.75284L11.266 7.88244V7.89804C11.4026 8.21324 11.459 8.55736 11.4302 8.89968C11.4014 9.242 11.2883 9.57185 11.1009 9.85978C11.0775 9.89488 11.0528 9.92738 11.0268 9.95988L8.32015 13.1683C9.29387 15.147 11.3635 17.1984 13.3681 18.1747L16.5324 15.4824C16.5635 15.4563 16.596 15.4319 16.6299 15.4096C16.9176 15.2177 17.2486 15.1006 17.5929 15.0688C17.9373 15.037 18.2841 15.0916 18.602 15.2276L18.6189 15.2354L24.7433 17.9797C25.1558 18.1575 25.4997 18.4641 25.7235 18.8535C25.9473 19.243 26.039 19.6944 25.9849 20.1404ZM23.9204 19.8803C23.9204 19.8803 23.9113 19.8803 23.9061 19.8803L17.796 17.1438L14.6305 19.8361C14.5998 19.8622 14.5676 19.8865 14.5343 19.9089C14.2349 20.1086 13.8889 20.2273 13.5301 20.2532C13.1712 20.2792 12.8117 20.2117 12.4867 20.0571C10.0518 18.8806 7.62464 16.4717 6.44682 14.0627C6.29086 13.7402 6.22087 13.3827 6.24365 13.0251C6.26642 12.6676 6.38119 12.3219 6.57682 12.0217C6.59888 11.9865 6.62365 11.953 6.65093 11.9216L9.36017 8.70926L6.63013 2.59915C6.62961 2.59396 6.62961 2.58874 6.63013 2.58355C5.36943 2.748 4.21193 3.36638 3.37437 4.32287C2.53681 5.27936 2.07664 6.50837 2.08005 7.77974C2.08486 12.1915 3.83958 16.4213 6.95919 19.5409C10.0788 22.6605 14.3085 24.4152 18.7203 24.42C19.9909 24.4244 21.2196 23.9658 22.1766 23.1301C23.1337 22.2943 23.7536 21.1386 23.9204 19.879V19.8803Z" fill="#16CF16"/>
</svg>
