<svg width="22" height="22" viewBox="0 0 22 22" fill="none" xmlns="http://www.w3.org/2000/svg">
<path d="M11 11C9.53333 11 8.27777 10.4778 7.23333 9.43337C6.18888 8.38893 5.66666 7.13337 5.66666 5.66671C5.66666 4.20004 6.18888 2.94449 7.23333 1.90004C8.27777 0.855596 9.53333 0.333374 11 0.333374C12.4667 0.333374 13.7222 0.855596 14.7667 1.90004C15.8111 2.94449 16.3333 4.20004 16.3333 5.66671C16.3333 7.13337 15.8111 8.38893 14.7667 9.43337C13.7222 10.4778 12.4667 11 11 11ZM0.333328 21.6667V17.9334C0.333328 17.1778 0.527773 16.4834 0.916662 15.85C1.30555 15.2167 1.82222 14.7334 2.46666 14.4C3.84444 13.7112 5.24444 13.1945 6.66666 12.85C8.08888 12.5056 9.53333 12.3334 11 12.3334C12.4667 12.3334 13.9111 12.5056 15.3333 12.85C16.7556 13.1945 18.1556 13.7112 19.5333 14.4C20.1778 14.7334 20.6944 15.2167 21.0833 15.85C21.4722 16.4834 21.6667 17.1778 21.6667 17.9334V21.6667H0.333328ZM2.99999 19H19V17.9334C19 17.6889 18.9389 17.4667 18.8167 17.2667C18.6944 17.0667 18.5333 16.9112 18.3333 16.8C17.1333 16.2 15.9222 15.75 14.7 15.45C13.4778 15.15 12.2444 15 11 15C9.75555 15 8.52222 15.15 7.29999 15.45C6.07777 15.75 4.86666 16.2 3.66666 16.8C3.46666 16.9112 3.30555 17.0667 3.18333 17.2667C3.06111 17.4667 2.99999 17.6889 2.99999 17.9334V19ZM11 8.33337C11.7333 8.33337 12.3611 8.07226 12.8833 7.55004C13.4056 7.02782 13.6667 6.40004 13.6667 5.66671C13.6667 4.93337 13.4056 4.3056 12.8833 3.78337C12.3611 3.26115 11.7333 3.00004 11 3.00004C10.2667 3.00004 9.63888 3.26115 9.11666 3.78337C8.59444 4.3056 8.33333 4.93337 8.33333 5.66671C8.33333 6.40004 8.59444 7.02782 9.11666 7.55004C9.63888 8.07226 10.2667 8.33337 11 8.33337Z" fill="#333333"/>
</svg>
